<svg version="1.1" id="Layer_1" xmlns="http://www.w3.org/2000/svg" xmlns:xlink="http://www.w3.org/1999/xlink" x="0px" y="0px"
	 width="100%" viewBox="0 0 2598 3287" enable-background="new 0 0 2598 3287" xml:space="preserve">
<path fill="#FFFFFF" opacity="1.000000" stroke="none" 
	d="
M1228.000000,3290.000000 
	C818.666748,3290.000000 410.333466,3290.000000 2.000165,3290.000000 
	C2.000110,2194.000244 2.000110,1098.000488 2.000055,2.000606 
	C867.999573,2.000404 1733.999146,2.000404 2599.999023,2.000202 
	C2599.999512,1097.999390 2599.999512,2193.998779 2599.999756,3289.999023 
	C2143.000000,3290.000000 1686.000000,3290.000000 1228.000000,3290.000000 
M1611.761597,564.243713 
	C1611.761597,564.243713 1611.702759,564.216064 1611.984253,562.332581 
	C1612.026001,398.367035 1612.070557,234.401489 1612.068726,70.435936 
	C1612.068604,68.780945 1611.454590,67.125954 1611.003662,64.845917 
	C1558.328369,121.326210 1506.376587,176.974991 1454.488403,232.682877 
	C1402.592896,288.398621 1350.744019,344.157867 1298.906128,399.927246 
	C1246.841187,455.941101 1194.892334,512.063354 1142.749268,568.004395 
	C1090.819458,623.716492 1038.655884,679.210632 986.697388,734.896057 
	C934.751160,790.568420 882.908752,846.337769 831.063721,902.104370 
	C779.220215,957.869263 727.445435,1013.698059 675.611511,1069.471802 
	C623.777771,1125.245361 571.895508,1180.973755 520.057556,1236.743408 
	C467.992889,1292.757324 416.055298,1348.889771 363.880188,1404.800659 
	C311.916138,1460.485474 259.597076,1515.838989 207.671524,1571.559448 
	C155.927628,1627.085083 104.478958,1682.885864 52.496510,1739.002441 
	C54.297031,1739.684692 54.593285,1739.895508 54.889572,1739.895630 
	C401.810547,1739.973999 748.731506,1740.038086 1095.652466,1740.104004 
	C1096.652100,1740.104248 1097.652710,1740.104492 1098.651001,1740.146118 
	C1099.313232,1740.173584 1099.974976,1740.257935 1100.632080,1740.350708 
	C1100.959473,1740.396973 1101.290894,1740.484741 1101.593384,1740.616211 
	C1101.885376,1740.743164 1102.159912,1740.929077 1102.409912,1741.129150 
	C1102.668579,1741.336304 1102.888672,1741.591797 1103.889038,1742.581421 
	C1103.889038,1766.110352 1103.889038,1790.397339 1103.889038,1814.684448 
	C1103.889038,1839.012695 1103.889038,1863.340942 1103.889038,1887.669189 
	C1103.889038,1912.330688 1103.889038,1936.992065 1103.889038,1961.653564 
	C1103.889038,1985.981812 1103.889038,2010.310059 1103.889038,2034.638306 
	C1103.889038,2058.966553 1103.889038,2083.294922 1103.889038,2107.623047 
	C1103.889038,2131.951172 1103.889038,2156.279541 1103.889038,2180.607666 
	C1103.889038,2205.269043 1103.785400,2229.931152 1103.918579,2254.591797 
	C1104.049194,2278.775635 1103.317017,2302.981934 1104.435547,2328.100830 
	C1109.355957,2328.100830 1113.286133,2328.100830 1117.216309,2328.100830 
	C1172.871338,2328.100830 1228.526245,2328.124512 1284.181274,2328.089600 
	C1308.172852,2328.074463 1332.164551,2327.937256 1357.991821,2328.115723 
	C1441.138794,2328.148438 1524.285889,2328.183594 1607.432861,2328.197021 
	C1609.085938,2328.197266 1610.739136,2327.940918 1614.198242,2328.090088 
	C1614.863892,2328.111816 1615.529541,2328.152344 1616.195190,2328.152344 
	C1910.122437,2328.158691 2204.049561,2328.163574 2497.976807,2328.141846 
	C2500.533447,2328.141602 2503.090088,2327.775879 2505.575439,2327.586182 
	C2505.575439,2184.892578 2505.575439,2042.829834 2505.575439,1899.893677 
	C2385.755127,1899.893677 2266.675781,1899.893677 2147.030029,1899.893677 
	C2147.664551,1898.041748 2147.847168,1897.093262 2148.287109,1896.284790 
	C2163.071045,1869.125244 2178.519531,1842.304077 2192.522461,1814.748291 
	C2209.864014,1780.623047 2223.634277,1744.896729 2235.568848,1708.553833 
	C2248.224121,1670.015991 2258.140381,1630.719238 2265.474854,1590.794312 
	C2273.282471,1548.291260 2277.855957,1505.385498 2279.422119,1462.264893 
	C2280.362305,1436.372681 2278.817383,1410.387939 2278.315430,1384.446167 
	C2277.672119,1351.190552 2273.433594,1318.301514 2268.322754,1285.485596 
	C2260.839111,1237.432861 2249.078369,1190.410889 2233.644775,1144.361694 
	C2217.448975,1096.037231 2196.970215,1049.527466 2172.704834,1004.646667 
	C2124.942383,916.306519 2063.922607,838.334167 1990.014038,770.492554 
	C1950.234009,733.977905 1907.377563,701.369873 1861.593140,672.646667 
	C1805.592529,637.514282 1746.512939,608.737244 1684.074951,587.055176 
	C1661.505371,579.217834 1638.452881,572.771057 1615.008423,564.784363 
	C1613.938965,564.620361 1612.869507,564.456421 1611.761597,564.243713 
M822.216858,2844.834961 
	C815.046387,2832.731445 806.544800,2821.692383 795.903198,2812.423828 
	C761.141968,2782.147949 719.923401,2771.709961 675.224121,2776.450195 
	C619.133301,2782.398926 579.114136,2812.471436 554.961670,2863.369141 
	C549.186646,2875.539551 544.759949,2888.289307 543.130005,2901.927979 
	C562.150085,2910.123047 580.618408,2918.080078 598.325562,2925.709229 
	C604.074951,2911.363525 608.234802,2897.168213 615.155518,2884.478516 
	C631.507202,2854.496582 655.553711,2835.628174 691.700806,2836.032959 
	C730.281921,2836.465332 765.148499,2869.613037 767.779907,2908.177490 
	C769.177002,2928.652588 763.080811,2946.813965 753.178040,2964.147461 
	C739.330322,2988.385986 720.570251,3008.766357 700.774902,3027.977295 
	C680.034058,3048.105957 658.334778,3067.323730 636.192383,3085.912842 
	C604.647400,3112.394531 572.316528,3137.940186 540.191040,3163.991455 
	C540.191040,3174.891113 540.191040,3186.088867 540.191040,3197.423584 
	C642.815796,3197.423584 744.911377,3197.423584 846.871582,3197.423584 
	C846.871582,3177.328125 846.871582,3157.906006 846.871582,3137.583984 
	C786.346680,3137.583984 726.625549,3137.583984 665.963135,3137.583984 
	C667.461121,3135.898438 667.993713,3135.066650 668.731323,3134.502686 
	C700.430908,3110.265137 731.481201,3085.275635 760.634338,3057.953613 
	C781.355347,3038.534180 800.312805,3017.700928 815.754517,2993.814697 
	C828.953430,2973.397705 837.615662,2951.212158 839.566772,2926.884766 
	C841.847046,2898.453369 837.196533,2871.243164 822.216858,2844.834961 
M370.137634,2827.035645 
	C355.263580,2849.911133 340.356781,2872.765137 325.521881,2895.666016 
	C284.291016,2959.314697 243.377686,3023.172852 201.605545,3086.464111 
	C194.288696,3097.550293 193.629181,3108.274414 194.962662,3121.369873 
	C263.788513,3121.369873 332.239685,3121.369873 401.928650,3121.369873 
	C401.928650,3147.563965 401.928650,3172.645508 401.928650,3197.497559 
	C423.361938,3197.497559 443.539032,3197.497559 464.562531,3197.497559 
	C464.562531,3172.056396 464.562531,3147.201172 464.562531,3121.138672 
	C480.843536,3121.138672 496.307007,3121.138672 511.577271,3121.138672 
	C511.577271,3100.779541 511.577271,3081.661133 511.577271,3061.795410 
	C495.630219,3061.795410 480.433990,3061.795410 464.112427,3061.795410 
	C464.112427,2968.639648 464.112427,2876.246338 464.112427,2783.197021 
	C443.016876,2783.197021 423.059479,2783.262695 403.103210,2783.140381 
	C399.205566,2783.116699 397.109253,2785.013916 395.190308,2788.060303 
	C387.216156,2800.719971 379.080750,2813.277832 370.137634,2827.035645 
M1803.159424,3168.220459 
	C1805.619263,3165.820068 1808.079102,3163.419678 1811.963623,3159.629150 
	C1811.963623,3173.647705 1811.963623,3185.475342 1811.963623,3197.379395 
	C1833.139771,3197.379395 1853.560181,3197.379395 1873.900024,3197.379395 
	C1873.900024,3111.476074 1873.900024,3026.291260 1873.900024,2940.731445 
	C1853.039917,2940.731445 1832.621094,2940.731445 1812.063965,2940.731445 
	C1810.864868,2952.566162 1812.649170,2963.965088 1811.214478,2974.021973 
	C1806.066284,2969.536377 1801.115356,2965.136963 1796.073608,2960.844238 
	C1769.233521,2937.991455 1738.019165,2929.625244 1703.330322,2933.146973 
	C1652.775024,2938.280029 1618.836548,2965.831299 1599.299438,3011.753174 
	C1589.110107,3035.703125 1586.788208,3060.889893 1589.494507,3086.877930 
	C1592.749146,3118.131104 1604.347656,3145.428467 1625.977905,3167.996338 
	C1651.475586,3194.599365 1683.060181,3207.090088 1720.029297,3206.145996 
	C1752.652222,3205.312744 1779.861084,3192.755371 1803.159424,3168.220459 
M1446.917725,2934.074219 
	C1431.377563,2931.985596 1415.887817,2931.419189 1400.244141,2933.667969 
	C1363.277466,2938.982178 1333.042969,2956.047119 1309.886475,2985.191895 
	C1287.640747,3013.190186 1278.858521,3045.184570 1281.481323,3080.943848 
	C1284.507202,3122.196289 1303.174927,3154.240479 1335.804321,3178.676025 
	C1382.798828,3213.868896 1457.563232,3216.037109 1509.042358,3182.745850 
	C1525.379883,3172.180176 1538.776123,3158.561523 1549.225220,3140.447510 
	C1533.666748,3132.457031 1518.711670,3124.776123 1503.690674,3117.061768 
	C1501.753174,3118.786377 1500.070312,3119.924805 1498.840820,3121.433105 
	C1482.693604,3141.243408 1462.096558,3152.952393 1436.490479,3154.726074 
	C1407.436646,3156.738770 1381.534668,3149.184082 1362.296143,3126.118408 
	C1350.965332,3112.533691 1345.386353,3096.397949 1346.032349,3077.350830 
	C1369.874756,3077.350830 1393.107422,3077.350830 1416.340210,3077.350830 
	C1439.330811,3077.350830 1462.321777,3077.414062 1485.312012,3077.333008 
	C1508.503784,3077.251221 1531.710938,3077.700684 1556.287476,3077.004150 
	C1555.555298,3063.459961 1555.930420,3051.094482 1554.041870,3039.084717 
	C1548.400879,3003.213867 1530.936768,2974.428955 1500.444458,2953.983154 
	C1484.669678,2943.406006 1467.051392,2937.786377 1446.917725,2934.074219 
M2172.317139,3153.000000 
	C2172.317139,3167.864746 2172.317139,3182.729492 2172.317139,3197.380127 
	C2194.164795,3197.380127 2214.635498,3197.380127 2235.682861,3197.380127 
	C2235.682861,3193.045654 2235.682617,3189.426270 2235.682617,3185.806641 
	C2235.682861,3138.154297 2235.599121,3090.501465 2235.717041,3042.849365 
	C2235.780762,3017.104004 2246.938232,2998.053711 2270.933105,2987.640869 
	C2283.367432,2982.244629 2296.481689,2981.298828 2309.924072,2983.607910 
	C2327.837891,2986.685547 2341.143066,2995.743164 2349.528809,3012.077393 
	C2355.954834,3024.594482 2357.434570,3038.135498 2357.534668,3051.723633 
	C2357.866699,3096.707764 2357.660156,3141.696045 2357.660156,3186.682617 
	C2357.660156,3190.243408 2357.660156,3193.804199 2357.660156,3197.356934 
	C2379.190674,3197.356934 2399.615967,3197.356934 2420.339844,3197.356934 
	C2420.339844,3192.955811 2420.339844,3189.297119 2420.339844,3185.638672 
	C2420.339844,3134.653809 2420.457275,3083.668457 2420.225342,3032.684570 
	C2420.186279,3024.102295 2419.304688,3015.396729 2417.655029,3006.974609 
	C2413.785645,2987.219238 2404.638428,2970.083740 2389.745361,2956.342285 
	C2356.223389,2925.412598 2299.346680,2926.205322 2265.400391,2946.082764 
	C2255.254883,2952.023193 2246.137451,2959.719482 2235.666016,2967.246094 
	C2235.666016,2958.328613 2235.666016,2949.597656 2235.666016,2940.680664 
	C2214.056396,2940.680664 2193.596924,2940.680664 2172.317383,2940.680664 
	C2172.317383,3011.186035 2172.317383,3081.093018 2172.317139,3153.000000 
M1147.000000,3198.096924 
	C1184.230347,3198.096924 1221.460693,3198.096924 1258.979248,3198.096924 
	C1258.979248,3178.065186 1258.979248,3159.013916 1258.979248,3139.181152 
	C1247.673828,3139.181152 1237.053833,3139.180908 1226.433838,3139.180908 
	C1216.103760,3139.180908 1205.773560,3139.180908 1195.443481,3139.180908 
	C1184.780151,3139.180908 1174.116821,3139.180908 1163.453491,3139.180908 
	C1153.123413,3139.180908 1142.791504,3139.299316 1132.463623,3139.148193 
	C1121.983765,3138.994629 1111.437256,3139.863037 1100.182373,3138.421875 
	C1100.182373,3019.647949 1100.182373,2901.831787 1100.182373,2783.895020 
	C1077.803467,2783.895020 1056.324219,2783.895020 1034.818970,2783.895020 
	C1034.818970,2922.114014 1034.818970,3059.619141 1034.818970,3198.096924 
	C1071.872314,3198.096924 1108.436157,3198.096924 1147.000000,3198.096924 
M2043.268555,2946.176514 
	C2033.810791,2954.727783 2024.353027,2963.278809 2014.121582,2972.529541 
	C2014.121582,2961.654541 2014.121582,2951.221680 2014.121582,2940.818115 
	C1992.390503,2940.818115 1971.633545,2940.818115 1950.791748,2940.818115 
	C1950.791748,3026.729980 1950.791748,3111.901367 1950.791748,3197.548096 
	C1972.044189,3197.548096 1992.820068,3197.548096 2014.340454,3197.548096 
	C2014.340454,3193.407715 2014.340332,3189.811279 2014.340332,3186.215088 
	C2014.340210,3139.564697 2014.318115,3092.914062 2014.383789,3046.263672 
	C2014.388794,3042.653809 2014.580811,3038.942871 2015.410767,3035.451172 
	C2022.786133,3004.419922 2055.243896,2983.033203 2086.780762,2988.880615 
	C2096.449219,2990.673096 2105.789795,2994.233154 2116.491943,2997.334717 
	C2124.646729,2980.674805 2133.220947,2963.157959 2142.198242,2944.817383 
	C2108.981689,2928.971680 2076.746094,2926.629395 2043.268555,2946.176514 
z"/>
<path fill="#9EE4E8" opacity="1.000000" stroke="none" 
	d="
M1356.156128,2327.855469 
	C1332.164551,2327.937256 1308.172852,2328.074463 1284.181274,2328.089600 
	C1228.526245,2328.124512 1172.871338,2328.100830 1117.216309,2328.100830 
	C1113.286133,2328.100830 1109.355957,2328.100830 1104.435547,2328.100830 
	C1103.317017,2302.981934 1104.049194,2278.775635 1103.918579,2254.591797 
	C1103.785400,2229.931152 1103.889038,2205.269043 1103.889038,2180.607666 
	C1103.889038,2156.279541 1103.889038,2131.951172 1103.889038,2107.623047 
	C1103.889038,2083.294922 1103.889038,2058.966553 1103.889038,2034.638306 
	C1103.889038,2010.310059 1103.889038,1985.981812 1103.889038,1961.653564 
	C1103.889038,1936.992065 1103.889038,1912.330688 1103.889038,1887.669189 
	C1103.889038,1863.340942 1103.889038,1839.012695 1103.889038,1814.684448 
	C1103.889038,1790.397339 1103.889038,1766.110352 1103.889038,1742.581421 
	C1102.888672,1741.591797 1102.668579,1741.336304 1102.409912,1741.129150 
	C1102.159912,1740.929077 1101.885376,1740.743164 1101.593384,1740.616211 
	C1101.290894,1740.484741 1100.959473,1740.396973 1100.632080,1740.350708 
	C1099.974976,1740.257935 1099.313232,1740.173584 1098.651001,1740.146118 
	C1097.652710,1740.104492 1096.652100,1740.104248 1095.652466,1740.104004 
	C748.731506,1740.038086 401.810547,1739.973999 54.889572,1739.895630 
	C54.593285,1739.895508 54.297031,1739.684692 52.496510,1739.002441 
	C104.478958,1682.885864 155.927628,1627.085083 207.671524,1571.559448 
	C259.597076,1515.838989 311.916138,1460.485474 363.880188,1404.800659 
	C416.055298,1348.889771 467.992889,1292.757324 520.057556,1236.743408 
	C571.895508,1180.973755 623.777771,1125.245361 675.611511,1069.471802 
	C727.445435,1013.698059 779.220215,957.869263 831.063721,902.104370 
	C882.908752,846.337769 934.751160,790.568420 986.697388,734.896057 
	C1038.655884,679.210632 1090.819458,623.716492 1142.749268,568.004395 
	C1194.892334,512.063354 1246.841187,455.941101 1298.906128,399.927246 
	C1350.744019,344.157867 1402.592896,288.398621 1454.488403,232.682877 
	C1506.376587,176.974991 1558.328369,121.326210 1611.003662,64.845917 
	C1611.454590,67.125954 1612.068604,68.780945 1612.068726,70.435936 
	C1612.070557,234.401489 1612.026001,398.367035 1611.027344,563.316223 
	C1595.458130,561.200134 1580.841064,558.122681 1566.234497,554.996582 
	C1524.912109,546.152771 1483.072876,540.681824 1440.950195,538.473267 
	C1415.129028,537.119446 1389.169312,535.391113 1363.257690,537.843079 
	C1361.059326,538.051147 1358.892212,538.589172 1356.070068,539.086914 
	C1356.070068,544.217468 1356.070068,548.842407 1356.070068,553.467346 
	C1356.070190,1140.598511 1356.069946,1727.729614 1356.073730,2314.860840 
	C1356.073730,2319.192383 1356.127441,2323.523926 1356.156128,2327.855469 
z"/>
<path fill="#266891" opacity="1.000000" stroke="none" 
	d="
M1615.620850,565.689697 
	C1638.452881,572.771057 1661.505371,579.217834 1684.074951,587.055176 
	C1746.512939,608.737244 1805.592529,637.514282 1861.593140,672.646667 
	C1907.377563,701.369873 1950.234009,733.977905 1990.014038,770.492554 
	C2063.922607,838.334167 2124.942383,916.306519 2172.704834,1004.646667 
	C2196.970215,1049.527466 2217.448975,1096.037231 2233.644775,1144.361694 
	C2249.078369,1190.410889 2260.839111,1237.432861 2268.322754,1285.485596 
	C2273.433594,1318.301514 2277.672119,1351.190552 2278.315430,1384.446167 
	C2278.817383,1410.387939 2280.362305,1436.372681 2279.422119,1462.264893 
	C2277.855957,1505.385498 2273.282471,1548.291260 2265.474854,1590.794312 
	C2258.140381,1630.719238 2248.224121,1670.015991 2235.568848,1708.553833 
	C2223.634277,1744.896729 2209.864014,1780.623047 2192.522461,1814.748291 
	C2178.519531,1842.304077 2163.071045,1869.125244 2148.287109,1896.284790 
	C2147.847168,1897.093262 2147.664551,1898.041748 2147.030029,1899.893677 
	C2266.675781,1899.893677 2385.755127,1899.893677 2505.575439,1899.893677 
	C2505.575439,2042.829834 2505.575439,2184.892578 2505.575439,2327.586182 
	C2503.090088,2327.775879 2500.533447,2328.141602 2497.976807,2328.141846 
	C2204.049561,2328.163574 1910.122437,2328.158691 1616.195190,2328.152344 
	C1615.529541,2328.152344 1614.863892,2328.111816 1613.192017,2327.025879 
	C1612.159180,2320.962891 1612.109131,2315.964111 1612.109131,2310.965088 
	C1612.105469,1734.053833 1612.106201,1157.142700 1612.099243,580.231445 
	C1612.099243,575.566833 1612.001343,570.902161 1612.565674,566.144287 
	C1613.995239,565.930542 1614.807983,565.810120 1615.620850,565.689697 
z"/>
<path fill="#26BAC7" opacity="1.000000" stroke="none" 
	d="
M1611.949097,566.237549 
	C1612.001343,570.902161 1612.099243,575.566833 1612.099243,580.231445 
	C1612.106201,1157.142700 1612.105469,1734.053833 1612.109131,2310.965088 
	C1612.109131,2315.964111 1612.159180,2320.962891 1612.289062,2326.883301 
	C1610.739136,2327.940918 1609.085938,2328.197266 1607.432861,2328.197021 
	C1524.285889,2328.183594 1441.138794,2328.148438 1357.073975,2327.985596 
	C1356.127441,2323.523926 1356.073730,2319.192383 1356.073730,2314.860840 
	C1356.069946,1727.729614 1356.070190,1140.598511 1356.070068,553.467346 
	C1356.070068,548.842407 1356.070068,544.217468 1356.070068,539.086914 
	C1358.892212,538.589172 1361.059326,538.051147 1363.257690,537.843079 
	C1389.169312,535.391113 1415.129028,537.119446 1440.950195,538.473267 
	C1483.072876,540.681824 1524.912109,546.152771 1566.234497,554.996582 
	C1580.841064,558.122681 1595.458130,561.200134 1610.886475,564.257935 
	C1611.702759,564.216064 1611.761597,564.243713 1611.759277,564.758179 
	C1611.756958,565.272644 1611.949097,566.237549 1611.949097,566.237549 
z"/>
<path fill="#4E4D4D" opacity="1.000000" stroke="none" 
	d="
M822.595215,2845.468262 
	C837.196533,2871.243164 841.847046,2898.453369 839.566772,2926.884766 
	C837.615662,2951.212158 828.953430,2973.397705 815.754517,2993.814697 
	C800.312805,3017.700928 781.355347,3038.534180 760.634338,3057.953613 
	C731.481201,3085.275635 700.430908,3110.265137 668.731323,3134.502686 
	C667.993713,3135.066650 667.461121,3135.898438 665.963135,3137.583984 
	C726.625549,3137.583984 786.346680,3137.583984 846.871582,3137.583984 
	C846.871582,3157.906006 846.871582,3177.328125 846.871582,3197.423584 
	C744.911377,3197.423584 642.815796,3197.423584 540.191040,3197.423584 
	C540.191040,3186.088867 540.191040,3174.891113 540.191040,3163.991455 
	C572.316528,3137.940186 604.647400,3112.394531 636.192383,3085.912842 
	C658.334778,3067.323730 680.034058,3048.105957 700.774902,3027.977295 
	C720.570251,3008.766357 739.330322,2988.385986 753.178040,2964.147461 
	C763.080811,2946.813965 769.177002,2928.652588 767.779907,2908.177490 
	C765.148499,2869.613037 730.281921,2836.465332 691.700806,2836.032959 
	C655.553711,2835.628174 631.507202,2854.496582 615.155518,2884.478516 
	C608.234802,2897.168213 604.074951,2911.363525 598.325562,2925.709229 
	C580.618408,2918.080078 562.150085,2910.123047 543.130005,2901.927979 
	C544.759949,2888.289307 549.186646,2875.539551 554.961670,2863.369141 
	C579.114136,2812.471436 619.133301,2782.398926 675.224121,2776.450195 
	C719.923401,2771.709961 761.141968,2782.147949 795.903198,2812.423828 
	C806.544800,2821.692383 815.046387,2832.731445 822.595215,2845.468262 
z"/>
<path fill="#4D4D4D" opacity="1.000000" stroke="none" 
	d="
M370.571075,2826.454346 
	C379.080750,2813.277832 387.216156,2800.719971 395.190308,2788.060303 
	C397.109253,2785.013916 399.205566,2783.116699 403.103210,2783.140381 
	C423.059479,2783.262695 443.016876,2783.197021 464.112427,2783.197021 
	C464.112427,2876.246338 464.112427,2968.639648 464.112427,3061.795410 
	C480.433990,3061.795410 495.630219,3061.795410 511.577271,3061.795410 
	C511.577271,3081.661133 511.577271,3100.779541 511.577271,3121.138672 
	C496.307007,3121.138672 480.843536,3121.138672 464.562531,3121.138672 
	C464.562531,3147.201172 464.562531,3172.056396 464.562531,3197.497559 
	C443.539032,3197.497559 423.361938,3197.497559 401.928650,3197.497559 
	C401.928650,3172.645508 401.928650,3147.563965 401.928650,3121.369873 
	C332.239685,3121.369873 263.788513,3121.369873 194.962662,3121.369873 
	C193.629181,3108.274414 194.288696,3097.550293 201.605545,3086.464111 
	C243.377686,3023.172852 284.291016,2959.314697 325.521881,2895.666016 
	C340.356781,2872.765137 355.263580,2849.911133 370.571075,2826.454346 
M353.416290,2952.430664 
	C331.179077,2987.934814 308.935028,3023.434814 286.756958,3058.975830 
	C286.338989,3059.645508 286.704651,3060.804199 286.704651,3061.724365 
	C318.396759,3063.497070 393.739044,3062.664551 401.144043,3060.499512 
	C401.144043,2999.754395 401.144043,2939.038330 401.144043,2878.322266 
	C400.705139,2878.156982 400.266205,2877.991943 399.827301,2877.826660 
	C384.562653,2902.256836 369.298004,2926.686768 353.416290,2952.430664 
z"/>
<path fill="#4D4D4D" opacity="1.000000" stroke="none" 
	d="
M1802.727783,3168.780273 
	C1779.861084,3192.755371 1752.652222,3205.312744 1720.029297,3206.145996 
	C1683.060181,3207.090088 1651.475586,3194.599365 1625.977905,3167.996338 
	C1604.347656,3145.428467 1592.749146,3118.131104 1589.494507,3086.877930 
	C1586.788208,3060.889893 1589.110107,3035.703125 1599.299438,3011.753174 
	C1618.836548,2965.831299 1652.775024,2938.280029 1703.330322,2933.146973 
	C1738.019165,2929.625244 1769.233521,2937.991455 1796.073608,2960.844238 
	C1801.115356,2965.136963 1806.066284,2969.536377 1811.214478,2974.021973 
	C1812.649170,2963.965088 1810.864868,2952.566162 1812.063965,2940.731445 
	C1832.621094,2940.731445 1853.039917,2940.731445 1873.900024,2940.731445 
	C1873.900024,3026.291260 1873.900024,3111.476074 1873.900024,3197.379395 
	C1853.560181,3197.379395 1833.139771,3197.379395 1811.963623,3197.379395 
	C1811.963623,3185.475342 1811.963623,3173.647705 1811.963623,3159.629150 
	C1808.079102,3163.419678 1805.619263,3165.820068 1802.727783,3168.780273 
M1661.596313,3103.177490 
	C1671.114868,3127.037109 1688.309570,3142.480713 1713.069336,3149.027832 
	C1749.083618,3158.551025 1784.403564,3144.471924 1802.235229,3113.115234 
	C1814.045288,3092.347168 1816.279297,3069.957275 1810.441284,3046.787354 
	C1805.275024,3026.284180 1794.521484,3009.710693 1776.335327,2998.383789 
	C1762.633301,2989.849854 1747.673950,2987.293945 1731.624512,2987.130127 
	C1700.221069,2986.809570 1672.390991,3007.858887 1661.776611,3034.656250 
	C1652.958862,3056.917236 1653.474365,3079.310547 1661.596313,3103.177490 
z"/>
<path fill="#4E4E4E" opacity="1.000000" stroke="none" 
	d="
M1447.785645,2934.100586 
	C1467.051392,2937.786377 1484.669678,2943.406006 1500.444458,2953.983154 
	C1530.936768,2974.428955 1548.400879,3003.213867 1554.041870,3039.084717 
	C1555.930420,3051.094482 1555.555298,3063.459961 1556.287476,3077.004150 
	C1531.710938,3077.700684 1508.503784,3077.251221 1485.312012,3077.333008 
	C1462.321777,3077.414062 1439.330811,3077.350830 1416.340210,3077.350830 
	C1393.107422,3077.350830 1369.874756,3077.350830 1346.032349,3077.350830 
	C1345.386353,3096.397949 1350.965332,3112.533691 1362.296143,3126.118408 
	C1381.534668,3149.184082 1407.436646,3156.738770 1436.490479,3154.726074 
	C1462.096558,3152.952393 1482.693604,3141.243408 1498.840820,3121.433105 
	C1500.070312,3119.924805 1501.753174,3118.786377 1503.690674,3117.061768 
	C1518.711670,3124.776123 1533.666748,3132.457031 1549.225220,3140.447510 
	C1538.776123,3158.561523 1525.379883,3172.180176 1509.042358,3182.745850 
	C1457.563232,3216.037109 1382.798828,3213.868896 1335.804321,3178.676025 
	C1303.174927,3154.240479 1284.507202,3122.196289 1281.481323,3080.943848 
	C1278.858521,3045.184570 1287.640747,3013.190186 1309.886475,2985.191895 
	C1333.042969,2956.047119 1363.277466,2938.982178 1400.244141,2933.667969 
	C1415.887817,2931.419189 1431.377563,2931.985596 1447.785645,2934.100586 
M1415.215332,2981.316650 
	C1412.234253,2981.566162 1409.218140,2981.606934 1406.277344,2982.097900 
	C1378.726685,2986.697021 1359.144897,3000.973633 1350.610840,3028.407471 
	C1349.784668,3031.063232 1349.744629,3033.963623 1349.361206,3036.602539 
	C1397.456421,3036.602539 1444.577881,3036.602539 1491.708008,3036.602539 
	C1491.380005,3023.976807 1480.973877,3008.203369 1472.997192,3000.736572 
	C1457.193604,2985.943115 1438.285278,2980.494873 1415.215332,2981.316650 
z"/>
<path fill="#4E4E4E" opacity="1.000000" stroke="none" 
	d="
M2172.317383,3152.000000 
	C2172.317383,3081.093018 2172.317383,3011.186035 2172.317383,2940.680664 
	C2193.596924,2940.680664 2214.056396,2940.680664 2235.666016,2940.680664 
	C2235.666016,2949.597656 2235.666016,2958.328613 2235.666016,2967.246094 
	C2246.137451,2959.719482 2255.254883,2952.023193 2265.400391,2946.082764 
	C2299.346680,2926.205322 2356.223389,2925.412598 2389.745361,2956.342285 
	C2404.638428,2970.083740 2413.785645,2987.219238 2417.655029,3006.974609 
	C2419.304688,3015.396729 2420.186279,3024.102295 2420.225342,3032.684570 
	C2420.457275,3083.668457 2420.339844,3134.653809 2420.339844,3185.638672 
	C2420.339844,3189.297119 2420.339844,3192.955811 2420.339844,3197.356934 
	C2399.615967,3197.356934 2379.190674,3197.356934 2357.660156,3197.356934 
	C2357.660156,3193.804199 2357.660156,3190.243408 2357.660156,3186.682617 
	C2357.660156,3141.696045 2357.866699,3096.707764 2357.534668,3051.723633 
	C2357.434570,3038.135498 2355.954834,3024.594482 2349.528809,3012.077393 
	C2341.143066,2995.743164 2327.837891,2986.685547 2309.924072,2983.607910 
	C2296.481689,2981.298828 2283.367432,2982.244629 2270.933105,2987.640869 
	C2246.938232,2998.053711 2235.780762,3017.104004 2235.717041,3042.849365 
	C2235.599121,3090.501465 2235.682861,3138.154297 2235.682617,3185.806641 
	C2235.682617,3189.426270 2235.682861,3193.045654 2235.682861,3197.380127 
	C2214.635498,3197.380127 2194.164795,3197.380127 2172.317139,3197.380127 
	C2172.317139,3182.729492 2172.317139,3167.864746 2172.317383,3152.000000 
z"/>
<path fill="#4D4D4D" opacity="1.000000" stroke="none" 
	d="
M1146.000000,3198.096924 
	C1108.436157,3198.096924 1071.872314,3198.096924 1034.818970,3198.096924 
	C1034.818970,3059.619141 1034.818970,2922.114014 1034.818970,2783.895020 
	C1056.324219,2783.895020 1077.803467,2783.895020 1100.182373,2783.895020 
	C1100.182373,2901.831787 1100.182373,3019.647949 1100.182373,3138.421875 
	C1111.437256,3139.863037 1121.983765,3138.994629 1132.463623,3139.148193 
	C1142.791504,3139.299316 1153.123413,3139.180908 1163.453491,3139.180908 
	C1174.116821,3139.180908 1184.780151,3139.180908 1195.443481,3139.180908 
	C1205.773560,3139.180908 1216.103760,3139.180908 1226.433838,3139.180908 
	C1237.053833,3139.180908 1247.673828,3139.181152 1258.979248,3139.181152 
	C1258.979248,3159.013916 1258.979248,3178.065186 1258.979248,3198.096924 
	C1221.460693,3198.096924 1184.230347,3198.096924 1146.000000,3198.096924 
z"/>
<path fill="#4E4E4E" opacity="1.000000" stroke="none" 
	d="
M2043.900757,2945.820312 
	C2076.746094,2926.629395 2108.981689,2928.971680 2142.198242,2944.817383 
	C2133.220947,2963.157959 2124.646729,2980.674805 2116.491943,2997.334717 
	C2105.789795,2994.233154 2096.449219,2990.673096 2086.780762,2988.880615 
	C2055.243896,2983.033203 2022.786133,3004.419922 2015.410767,3035.451172 
	C2014.580811,3038.942871 2014.388794,3042.653809 2014.383789,3046.263672 
	C2014.318115,3092.914062 2014.340210,3139.564697 2014.340332,3186.215088 
	C2014.340332,3189.811279 2014.340454,3193.407715 2014.340454,3197.548096 
	C1992.820068,3197.548096 1972.044189,3197.548096 1950.791748,3197.548096 
	C1950.791748,3111.901367 1950.791748,3026.729980 1950.791748,2940.818115 
	C1971.633545,2940.818115 1992.390503,2940.818115 2014.121582,2940.818115 
	C2014.121582,2951.221680 2014.121582,2961.654541 2014.121582,2972.529541 
	C2024.353027,2963.278809 2033.810791,2954.727783 2043.900757,2945.820312 
z"/>
<path fill="#9EE4E8" opacity="1.000000" stroke="none" 
	d="
M1612.565674,566.144287 
	C1611.949097,566.237549 1611.756958,565.272644 1611.778564,564.782532 
	C1612.869507,564.456421 1613.938965,564.620361 1615.314697,565.237061 
	C1614.807983,565.810120 1613.995239,565.930542 1612.565674,566.144287 
z"/>
<path fill="#FCFDFD" opacity="1.000000" stroke="none" 
	d="
M353.724823,2951.773926 
	C369.298004,2926.686768 384.562653,2902.256836 399.827301,2877.826660 
	C400.266205,2877.991943 400.705139,2878.156982 401.144043,2878.322266 
	C401.144043,2939.038330 401.144043,2999.754395 401.144043,3060.499512 
	C393.739044,3062.664551 318.396759,3063.497070 286.704651,3061.724365 
	C286.704651,3060.804199 286.338989,3059.645508 286.756958,3058.975830 
	C308.935028,3023.434814 331.179077,2987.934814 353.724823,2951.773926 
z"/>
<path fill="#FEFEFE" opacity="1.000000" stroke="none" 
	d="
M1661.217773,3102.487793 
	C1653.474365,3079.310547 1652.958862,3056.917236 1661.776611,3034.656250 
	C1672.390991,3007.858887 1700.221069,2986.809570 1731.624512,2987.130127 
	C1747.673950,2987.293945 1762.633301,2989.849854 1776.335327,2998.383789 
	C1794.521484,3009.710693 1805.275024,3026.284180 1810.441284,3046.787354 
	C1816.279297,3069.957275 1814.045288,3092.347168 1802.235229,3113.115234 
	C1784.403564,3144.471924 1749.083618,3158.551025 1713.069336,3149.027832 
	C1688.309570,3142.480713 1671.114868,3127.037109 1661.217773,3102.487793 
z"/>
<path fill="#FBFAFA" opacity="1.000000" stroke="none" 
	d="
M1416.171387,2981.315918 
	C1438.285278,2980.494873 1457.193604,2985.943115 1472.997192,3000.736572 
	C1480.973877,3008.203369 1491.380005,3023.976807 1491.708008,3036.602539 
	C1444.577881,3036.602539 1397.456421,3036.602539 1349.361206,3036.602539 
	C1349.744629,3033.963623 1349.784668,3031.063232 1350.610840,3028.407471 
	C1359.144897,3000.973633 1378.726685,2986.697021 1406.277344,2982.097900 
	C1409.218140,2981.606934 1412.234253,2981.566162 1416.171387,2981.315918 
z"/>
</svg>